# AST/ASF file generated using VICON BodyLanguage
# -----------------------------------------------
:version 1.10
:name VICON
:units
  mass 1.0
  length 0.45
  angle deg
:documentation
   .ast/.asf automatically generated from VICON data using
   VICON BodyBuilder and BodyLanguage model FoxedUp or BRILLIANT.MOD
:root
   order TX TY TZ RX RY RZ
   axis XYZ
   position 0 0 0  
   orientation 0 0 0 
:bonedata
  begin
     id 1 
     name lhipjoint
     direction 0.566809 -0.746272 0.349008 
     length 2.40479 
     axis 0 0 0  XYZ
  end
  begin
     id 2 
     name lfemur
     direction 0.34202 -0.939693 0  
     length 7.1578  
     axis 0 0 20  XYZ
    dof rx ry rz
    limits (-160.0 20.0)
           (-70.0 70.0)
           (-60.0 70.0)
  end
  begin
     id 3 
     name ltibia
     direction 0.34202 -0.939693 0   
     length 7.49137   
     axis 0 0 20   XYZ
    dof rx
    limits (-10.0 170.0)
  end
  begin
     id 4 
     name lfoot
     direction 0.0665746 -0.182912 0.980873   
     length 2.36784   
     axis -90 7.62852e-016 20   XYZ
    dof rx rz
    limits (-45.0 90.0)
           (-70.0 20.0)
  end
  begin
     id 5 
     name ltoes
     direction 1.53601e-011 -4.22058e-011 1   
     length 1.18966   
     axis -90 7.62852e-016 20   XYZ
    dof rx
    limits (-90.0 20.0)
  end
  begin
     id 6 
     name rhipjoint
     direction -0.550236 -0.756381 0.353735   
     length 2.37265  
     axis 0 0 0  XYZ 
  end
  begin
     id 7 
     name rfemur
     direction -0.34202 -0.939693 0   
     length 7.43386   
     axis 0 0 -20   XYZ
    dof rx ry rz
    limits (-160.0 20.0)
           (-70.0 70.0)
           (-70.0 60.0)
  end
  begin
     id 8 
     name rtibia
     direction -0.34202 -0.939693 0   
     length 7.50908   
     axis 0 0 -20   XYZ
    dof rx
    limits (-10.0 170.0)
 end
 begin
     id 9 
     name rfoot
     direction -0.0683029 -0.187661 0.979856   
     length 2.41173  
     axis -90 -7.62852e-016 -20   XYZ
    dof rx rz
    limits (-45.0 90.0)
           (-20.0 70.0)
  end
  begin
     id 10 
     name rtoes
     direction -1.53528e-011 -4.21968e-011 1   
     length 1.21082   
     axis -90 -7.62852e-016 -20   XYZ
    dof rx
    limits (-90.0 20.0)
  end
  begin
     id 11 
     name lowerback
     direction 0.013823 0.995423 -0.0945635   
     length 2.04495   
     axis 0 0 0   XYZ
    dof rx ry rz
    limits (-20.0 45.0)
           (-30.0 30.0)
           (-30.0 30.0)
  end
  begin
     id 12 
     name upperback
     direction 0.0276657 0.9994 -0.020853   
     length 2.05008   
     axis 0 0 0   XYZ
    dof rx ry rz
    limits (-20.0 45.0)
           (-30.0 30.0)
           (-30.0 30.0)
  end
  begin
     id 13 
     name thorax
     direction 0.019782 0.999531 0.0233827   
     length 2.06488   
     axis 0 0 0   XYZ
    dof rx ry rz
    limits (-20.0 45.0)
           (-30.0 30.0)
           (-30.0 30.0)
  end
  begin
     id 14 
     name lowerneck
     direction -0.0308541 0.994709 0.0979874   
     length 1.75553   
     axis 0 0 0   XYZ
    dof rx ry rz
    limits (-20.0 45.0)
           (-30.0 30.0)
           (-30.0 30.0)
  end
  begin
     id 15 
     name upperneck
     direction 0.0588398 0.995804 -0.0700903   
     length 1.76878   
     axis 0 0 0   XYZ
    dof rx ry rz
    limits (-20.0 45.0)
           (-30.0 30.0)
           (-30.0 30.0)
  end
  begin
     id 16
     name head
     direction 0.0209966 0.999159 -0.0352225  
     length 1.77193  
     axis 0 0 0   XYZ
    dof rx ry rz
    limits (-20.0 45.0)
           (-30.0 30.0)
           (-30.0 30.0)
  end
  begin
     id 17 
     name lclavicle
     direction 0.938182 0.335073 -0.0868338  
     length 3.58396  
     axis 0 0 0   XYZ
    dof ry rz
    limits (-20.0 10.0)
           (0.0 20.0)
  end
  begin
     id 18 
     name lhumerus
     direction 1 -4.48971e-011 -1.26313e-017   
     length 4.983   
     axis 180 -30 -90   XYZ
    dof rx ry rz
    limits (-60.0 90.0)
           (-90.0 90.0)
           (-90.0 90.0)
  end
  begin
     id 19
     name lradius
     direction 1 -4.48948e-011 -5.89033e-027   
     length 3.48356   
     axis 180 -30 -90   XYZ
    dof rx
    limits (-10.0 170.0)
  end
  begin
     id 20
     name lwrist
     direction 1 -4.48977e-011 -1.48983e-026   
     length 1.74178   
     axis 9.0955e-015 90 90   XYZ
    dof ry
    limits (-180.0 0.0)
 end
  begin
     id 21 
     name lhand
     direction 1 -4.49046e-011 -2.98066e-026   
     length 0.715259   
     axis 1.90115e-014 90 90   XYZ
    dof rx rz
    limits (-90.0 90.0)
           (-45.0 45.0)
  end
  begin
     id 22 
     name lfingers
     direction 1 -4.48907e-011 -5.95731e-026   
     length 0.576661   
     axis 3.80223e-014 90 90   XYZ
    dof rx
    limits (0.0 90.0)
  end
  begin
     id 23
     name lthumb
     direction 0.707107 -6.34963e-011 0.707107   
     length 0.827973   
     axis -90 45 -3.84942e-014   XYZ
    dof rx rz
    limits (-45.0 45.0)
           (-45.0 45.0)
  end
  begin
     id 24 
     name rclavicle
     direction -0.909637 0.398485 -0.11735   
     length 3.44819  
     axis 0 0 0   XYZ 
    dof ry rz
    limits (-10.0 20.0)
           (-20.0 0.0)
  end
  begin
     id 25 
     name rhumerus
     direction -1 -4.48978e-011 -1.09333e-027  
     length 5.2419   
     axis 180 30 90   XYZ
    dof rx ry rz
    limits (-90.0 60.0)
           (-90.0 90.0)
           (-90.0 90.0)
  end
  begin
     id 26 
     name rradius
     direction -1 -4.48953e-011 -7.61841e-027   
     length 3.44417   
     axis 180 30 90   XYZ
    dof rx
    limits (-10.0 170.0)
  end
  begin
     id 27 
     name rwrist
     direction -1 -4.48977e-011 -1.48983e-026   
     length 1.72209   
     axis 9.0955e-015 -90 -90   XYZ
    dof ry
    limits (-180.0 0.0)
  end
  begin
     id 28
     name rhand
     direction -1 -4.49027e-011 -2.98038e-026   
     length 0.622529   
     axis 1.90115e-014 -90 -90   XYZ
    dof rx rz
    limits (-90.0 90.0)
           (-45.0 45.0)
  end
  begin
     id 29
     name rfingers
     direction -1 -4.48838e-011 -5.95531e-026   
     length 0.501899   
     axis 3.80223e-014 -90 -90   XYZ
    dof rx
    limits (0.0 90.0)
  end
  begin
     id 30
     name rthumb
     direction -0.707107 -6.34937e-011 0.707107   
     length 0.720629   
     axis -90 -45 3.84942e-014   XYZ
    dof rx rz
    limits (-45.0 45.0)
           (-45.0 45.0)
  end
:hierarchy
  begin
    root lhipjoint rhipjoint lowerback
    lhipjoint lfemur
    lfemur ltibia
    ltibia lfoot
    lfoot ltoes
    rhipjoint rfemur
    rfemur rtibia
    rtibia rfoot
    rfoot rtoes
    lowerback upperback
    upperback thorax
    thorax lowerneck lclavicle rclavicle
    lowerneck upperneck
    upperneck head
    lclavicle lhumerus
    lhumerus lradius
    lradius lwrist
    lwrist lhand lthumb
    lhand lfingers
    rclavicle rhumerus
    rhumerus rradius
    rradius rwrist
    rwrist rhand rthumb
    rhand rfingers
  end

#!OML:ASF F:\VICON\USERDATA\Patient Classification 1\PLAYGROUND\JustinFriday\JustinFriday.ASF
:FULLY-SPECIFIED
:DEGREES
152
root 34.6389 18.1422 10.486 185.989 37.4509 -172.392
lowerback 11.3097 1.32391 1.67546
upperback 1.87746 2.23313 2.24261
thorax -4.40427 1.16264 1.05693
lowerneck -8.57048 3.11587 -2.02207
upperneck 19.9056 5.00425 1.45059
head 7.43194 2.62019 1.28291
rclavicle 3.06501e-014 2.83268e-014
rhumerus -32.2039 -19.604 -75.365
rradius 18.1112
rwrist 1.25078
rhand -16.7269 -23.7609
rfingers 7.12502
rthumb 9.49885 -53.5268
lclavicle 3.06501e-014 2.83268e-014
lhumerus -33.8495 19.6293 68.9005
lradius 28.2253
lwrist -2.44165
lhand -16.3661 -6.26289
lfingers 7.12502
lthumb 9.84699 23.4868
rfemur -4.6409 3.20458 22.999
rtibia 59.3128
rfoot 10.2022 11.3136
rtoes -3.89629
lfemur -21.4698 4.22596 -20.7708
ltibia 31.5655
lfoot -10.1278 3.76674
ltoes 16.415
153
root 34.7106 18.1632 10.3618 185.882 37.1252 -172.546
lowerback 11.1328 1.17778 1.66372
upperback 1.84566 2.02899 2.23277
thorax -4.33772 1.0608 1.08739
lowerneck -8.63585 3.41075 -1.82473
upperneck 19.9504 5.41068 1.31949
head 7.46052 2.81633 1.24547
rclavicle 8.56016e-015 1.12313e-014
rhumerus -31.9717 -18.6538 -76.0473
rradius 18.7029
rwrist -0.0635299
rhand -17.3278 -24.7746
rfingers 7.12502
rthumb 8.91901 -54.5661
lclavicle 8.56016e-015 1.12313e-014
lhumerus -33.5938 19.497 69.0992
lradius 28.4726
lwrist -2.45826
lhand -17.5025 -7.22843
lfingers 7.12502
lthumb 8.75048 22.5702
rfemur -6.17459 3.20635 22.9102
rtibia 61.1292
rfoot 8.49559 9.76208
rtoes -5.12091
lfemur -20.6202 4.21599 -20.9425
ltibia 30.9253
lfoot -10.2437 3.58889
ltoes 15.9549
154
root 34.7818 18.1795 10.2357 185.405 36.8923 -173.018
lowerback 11.0616 1.05845 1.41362
upperback 1.96996 1.83241 2.13643
thorax -4.1709 0.968237 1.15913
lowerneck -9.02812 3.66134 -1.58685
upperneck 20.0112 5.74989 1.13215
head 7.55851 2.97005 1.18648
rclavicle -4.82053e-014 8.99501e-015
rhumerus -31.6162 -18.3422 -76.4122
rradius 19.1051
rwrist -0.789562
rhand -17.585 -24.9118
rfingers 7.12502
rthumb 8.67084 -54.7137
lclavicle -4.82053e-014 8.99501e-015
lhumerus -33.2535 19.2149 69.4039
lradius 29.0631
lwrist -1.79698
lhand -18.1991 -7.81314
lfingers 7.12502
lthumb 8.07816 22.0125
rfemur -7.48714 3.21567 22.4873
rtibia 62.8379
rfoot 6.60459 8.25406
rtoes -4.69723
lfemur -19.6371 4.38619 -21.4024
ltibia 30.429
lfoot -10.6141 3.35067
ltoes 15.367
155
root 34.8538 18.1975 10.111 184.965 36.3953 -173.274
lowerback 11.2259 0.897658 1.2902
upperback 1.86128 1.61503 2.22779
thorax -4.37889 0.861616 1.35181
lowerneck -8.45894 3.76305 -1.85126
upperneck 19.6762 5.92625 1.09978
head 7.33761 3.04079 1.21144
rclavicle 9.52194e-014 -7.59109e-015
rhumerus -31.9931 -17.628 -76.3946
rradius 19.8099
rwrist -1.474
rhand -17.4916 -25.001
rfingers 7.12502
rthumb 8.76101 -54.7991
lclavicle 9.52194e-014 -7.59109e-015
lhumerus -33.61 18.9343 69.7459
lradius 30.0129
lwrist -1.32384
lhand -18.7344 -8.71883
lfingers 7.12502
lthumb 7.56156 21.126
rfemur -8.64545 2.89401 22.2103
rtibia 64.3838
rfoot 5.31586 6.38227
rtoes -4.07741
lfemur -18.5378 4.88005 -21.654
ltibia 29.8298
lfoot -10.8069 2.44802
ltoes 15.2522
156
root 34.9218 18.2201 9.99354 184.754 35.8449 -173.483
lowerback 11.3637 0.714073 1.14086
upperback 1.58063 1.3622 2.36269
thorax -4.75182 0.735405 1.61178
lowerneck -7.73614 3.92553 -2.10054
upperneck 19.413 6.18856 1.08604
head 7.11224 3.16184 1.24338
rclavicle 1.28962e-014 6.16481e-014
rhumerus -32.4771 -17.3073 -76.187
rradius 20.4146
rwrist -1.96554
rhand -17.8459 -25.7886
rfingers 7.12502
rthumb 8.41903 -55.6008
lclavicle 1.28962e-014 6.16481e-014
lhumerus -34.0392 18.8441 70.0323
lradius 30.8356
lwrist -1.30575
lhand -19.8035 -9.69277
lfingers 7.12502
lthumb 6.52954 20.1866
rfemur -10.0521 2.54495 21.9923
rtibia 65.7162
rfoot 4.57225 4.40734
rtoes -2.6026
lfemur -17.6579 5.05526 -21.8526
ltibia 29.1789
lfoot -10.6871 1.80456
ltoes 14.9438
157
root 34.9848 18.2417 9.87482 184.347 35.3212 -174.045
lowerback 11.2892 0.596112 0.903597
upperback 1.6454 1.16473 2.24394
thorax -4.64014 0.640231 1.65252
lowerneck -8.23165 4.10284 -1.85336
upperneck 19.6386 6.43051 0.968029
head 7.28221 3.27679 1.20468
rclavicle -7.99363e-014 1.04362e-015
rhumerus -32.1499 -17.4158 -76.4318
rradius 20.849
rwrist -2.96056
rhand -18.7481 -26.4419
rfingers 7.12502
rthumb 7.54828 -56.2872
lclavicle -7.99363e-014 1.04362e-015
lhumerus -33.5012 18.6209 70.4414
lradius 31.5401
lwrist -0.992262
lhand -20.1443 -9.53886
lfingers 7.12502
lthumb 6.20048 20.3504
rfemur -11.4911 2.30096 21.4646
rtibia 66.9285
rfoot 3.76979 2.5645
rtoes -2.54703
lfemur -16.7095 4.74306 -22.375
ltibia 28.4473
lfoot -10.5713 1.55964
ltoes 15.325
